<svg width="726" height="528" viewBox="0 0 726 528" fill="none" xmlns="http://www.w3.org/2000/svg">
<g clip-path="url(#clip0_8_344)">
<path d="M422.894 93.0802C436.5 93.0802 447.531 82.0504 447.531 68.4445C447.531 54.8386 436.5 43.8088 422.894 43.8088C409.287 43.8088 398.257 54.8386 398.257 68.4445C398.257 82.0504 409.287 93.0802 422.894 93.0802Z" fill="#F2F2F2"/>
<path d="M614.009 458.703C650.629 430.812 668.12 383.944 657.17 339.234C656.898 338.124 656.611 337.015 656.309 335.909C649.049 309.37 631.09 284.148 604.914 275.668C582.936 268.547 558.945 274.023 536.017 271.191C491.006 265.633 456.11 229.216 431.556 191.087C407.003 152.957 388.132 110.277 355.506 78.7764C301.726 26.8533 213.999 15.6742 147.32 49.4723C80.6411 83.2704 38.1674 158.254 39.9788 232.985C41.7902 307.716 86.1566 379.164 150.588 417.072C174.257 430.998 201.633 440.863 228.877 437.411C252.517 434.415 273.996 421.714 297.525 417.943C334.517 412.014 371.274 428.739 403.269 448.228C435.264 467.717 466.17 490.818 502.528 499.853C537.832 508.626 581.57 483.41 614.009 458.703Z" fill="#F2F2F2"/>
<path d="M561.396 51.0416C560.593 50.5064 559.781 49.999 558.978 49.4823C535.773 34.642 510.901 22.5859 484.876 13.5631L478.841 96.8056H440.586V1.41162C438.178 0.913388 435.751 0.442832 433.325 -4.57764e-05V96.8056H387.863C362.836 96.8056 338.834 86.8641 321.137 69.168C303.44 51.472 293.498 27.4711 293.498 2.44511C291.062 2.97103 288.645 3.53377 286.228 4.1335V96.8056H249.2L243.451 17.429C216.706 27.6856 191.316 41.1735 167.845 57.5925C167.439 57.8693 167.033 58.1553 166.636 58.4321C164.597 59.8622 162.586 61.32 160.583 62.7963V380.367H269.711L267.783 353.656L257.172 206.999H470.86L460.249 353.656L458.321 380.367H566.24V54.2524C564.634 53.1637 563.02 52.0934 561.396 51.0416ZM286.228 182.779H255.419L249.725 104.076H286.228V182.779ZM433.325 182.779H381.58V181.22C381.58 180.47 381.432 179.728 381.145 179.036C380.858 178.343 380.437 177.714 379.906 177.185C379.376 176.655 378.746 176.235 378.053 175.949C377.36 175.663 376.618 175.517 375.868 175.518H353.373C352.624 175.517 351.882 175.665 351.19 175.951C350.498 176.238 349.869 176.658 349.34 177.187C348.81 177.717 348.39 178.345 348.104 179.037C347.817 179.729 347.67 180.471 347.67 181.22V182.779H293.498V104.076H433.325V182.779ZM440.586 182.779V104.076H478.316L472.623 182.779H440.586Z" fill="#3F3D56"/>
<path d="M-6.10352e-05 400.703C8.01568 410.201 16.6856 419.126 25.9463 427.414L700.054 428.337C709.314 420.049 717.984 411.123 726 401.626L-6.10352e-05 400.703Z" fill="#3F3D56"/>
<path d="M457.134 315.173V394.249C457.135 395.257 457.536 396.223 458.248 396.935C458.961 397.648 459.927 398.049 460.935 398.049H578.122C579.13 398.049 580.096 397.648 580.809 396.935C581.521 396.223 581.922 395.257 581.923 394.249V315.173C581.92 314.166 581.519 313.201 580.807 312.49C580.094 311.778 579.129 311.378 578.122 311.377H460.935C459.928 311.378 458.962 311.778 458.25 312.49C457.538 313.201 457.136 314.166 457.134 315.173Z" fill="#3F3D56"/>
<path d="M459.883 316.157V393.273C459.884 393.812 460.098 394.328 460.479 394.709C460.86 395.089 461.376 395.304 461.914 395.304H577.146C577.685 395.304 578.201 395.089 578.582 394.709C578.962 394.328 579.177 393.812 579.178 393.273V316.157C579.177 315.618 578.964 315.101 578.583 314.719C578.202 314.338 577.685 314.123 577.146 314.122H461.914C461.375 314.123 460.859 314.338 460.478 314.719C460.097 315.101 459.883 315.618 459.883 316.157Z" fill="#6C63FF"/>
<path d="M454.683 409.671C454.898 409.94 455.171 410.157 455.481 410.305C455.792 410.454 456.132 410.53 456.476 410.529H581.956C582.3 410.528 582.638 410.451 582.948 410.303C583.258 410.156 583.531 409.941 583.747 409.674C583.963 409.408 584.117 409.096 584.198 408.763C584.278 408.429 584.284 408.082 584.213 407.746L582.265 398.494C582.185 398.117 582.011 397.766 581.76 397.473C581.509 397.18 581.188 396.955 580.828 396.817C580.567 396.715 580.289 396.662 580.008 396.663H458.416C458.136 396.662 457.858 396.715 457.597 396.817C457.237 396.955 456.916 397.18 456.665 397.473C456.414 397.766 456.24 398.117 456.159 398.494L454.212 407.746C454.142 408.082 454.149 408.429 454.23 408.762C454.312 409.095 454.467 409.405 454.683 409.671Z" fill="#2F2E41"/>
<path d="M575.703 400.647H578.667C578.916 400.647 579.117 400.446 579.117 400.197V398.779C579.117 398.53 578.916 398.329 578.667 398.329H575.703C575.454 398.329 575.252 398.53 575.252 398.779V400.197C575.252 400.446 575.454 400.647 575.703 400.647Z" fill="#3F3D56"/>
<path d="M567.974 400.647H570.937C571.186 400.647 571.388 400.446 571.388 400.197V398.779C571.388 398.53 571.186 398.329 570.937 398.329H567.974C567.725 398.329 567.523 398.53 567.523 398.779V400.197C567.523 400.446 567.725 400.647 567.974 400.647Z" fill="#3F3D56"/>
<path d="M560.244 400.647H563.208C563.457 400.647 563.658 400.446 563.658 400.197V398.779C563.658 398.53 563.457 398.329 563.208 398.329H560.244C559.995 398.329 559.794 398.53 559.794 398.779V400.197C559.794 400.446 559.995 400.647 560.244 400.647Z" fill="#3F3D56"/>
<path d="M552.515 400.647H555.478C555.727 400.647 555.929 400.446 555.929 400.197V398.779C555.929 398.53 555.727 398.329 555.478 398.329H552.515C552.266 398.329 552.064 398.53 552.064 398.779V400.197C552.064 400.446 552.266 400.647 552.515 400.647Z" fill="#3F3D56"/>
<path d="M544.785 400.647H547.749C547.998 400.647 548.199 400.446 548.199 400.197V398.779C548.199 398.53 547.998 398.329 547.749 398.329H544.785C544.536 398.329 544.335 398.53 544.335 398.779V400.197C544.335 400.446 544.536 400.647 544.785 400.647Z" fill="#3F3D56"/>
<path d="M537.056 400.647H540.019C540.268 400.647 540.47 400.446 540.47 400.197V398.779C540.47 398.53 540.268 398.329 540.019 398.329H537.056C536.807 398.329 536.605 398.53 536.605 398.779V400.197C536.605 400.446 536.807 400.647 537.056 400.647Z" fill="#3F3D56"/>
<path d="M529.326 400.647H532.29C532.539 400.647 532.74 400.446 532.74 400.197V398.779C532.74 398.53 532.539 398.329 532.29 398.329H529.326C529.077 398.329 528.876 398.53 528.876 398.779V400.197C528.876 400.446 529.077 400.647 529.326 400.647Z" fill="#3F3D56"/>
<path d="M521.597 400.647H524.561C524.809 400.647 525.011 400.446 525.011 400.197V398.779C525.011 398.53 524.809 398.329 524.561 398.329H521.597C521.348 398.329 521.146 398.53 521.146 398.779V400.197C521.146 400.446 521.348 400.647 521.597 400.647Z" fill="#3F3D56"/>
<path d="M513.867 400.647H516.831C517.08 400.647 517.282 400.446 517.282 400.197V398.779C517.282 398.53 517.08 398.329 516.831 398.329H513.867C513.619 398.329 513.417 398.53 513.417 398.779V400.197C513.417 400.446 513.619 400.647 513.867 400.647Z" fill="#3F3D56"/>
<path d="M506.138 400.647H509.102C509.351 400.647 509.552 400.446 509.552 400.197V398.779C509.552 398.53 509.351 398.329 509.102 398.329H506.138C505.889 398.329 505.687 398.53 505.687 398.779V400.197C505.687 400.446 505.889 400.647 506.138 400.647Z" fill="#3F3D56"/>
<path d="M498.408 400.647H501.372C501.621 400.647 501.823 400.446 501.823 400.197V398.779C501.823 398.53 501.621 398.329 501.372 398.329H498.408C498.16 398.329 497.958 398.53 497.958 398.779V400.197C497.958 400.446 498.16 400.647 498.408 400.647Z" fill="#3F3D56"/>
<path d="M490.679 400.647H493.643C493.892 400.647 494.093 400.446 494.093 400.197V398.779C494.093 398.53 493.892 398.329 493.643 398.329H490.679C490.43 398.329 490.228 398.53 490.228 398.779V400.197C490.228 400.446 490.43 400.647 490.679 400.647Z" fill="#3F3D56"/>
<path d="M482.949 400.647H485.913C486.162 400.647 486.364 400.446 486.364 400.197V398.779C486.364 398.53 486.162 398.329 485.913 398.329H482.949C482.701 398.329 482.499 398.53 482.499 398.779V400.197C482.499 400.446 482.701 400.647 482.949 400.647Z" fill="#3F3D56"/>
<path d="M475.22 400.647H478.184C478.433 400.647 478.634 400.446 478.634 400.197V398.779C478.634 398.53 478.433 398.329 478.184 398.329H475.22C474.971 398.329 474.77 398.53 474.77 398.779V400.197C474.77 400.446 474.971 400.647 475.22 400.647Z" fill="#3F3D56"/>
<path d="M467.491 400.647H470.454C470.703 400.647 470.905 400.446 470.905 400.197V398.779C470.905 398.53 470.703 398.329 470.454 398.329H467.491C467.242 398.329 467.04 398.53 467.04 398.779V400.197C467.04 400.446 467.242 400.647 467.491 400.647Z" fill="#3F3D56"/>
<path d="M459.761 400.647H462.725C462.974 400.647 463.175 400.446 463.175 400.197V398.779C463.175 398.53 462.974 398.329 462.725 398.329H459.761C459.512 398.329 459.311 398.53 459.311 398.779V400.197C459.311 400.446 459.512 400.647 459.761 400.647Z" fill="#3F3D56"/>
<path d="M575.794 404.512H578.758C579.007 404.512 579.209 404.31 579.209 404.062V402.644C579.209 402.395 579.007 402.193 578.758 402.193H575.794C575.546 402.193 575.344 402.395 575.344 402.644V404.062C575.344 404.31 575.546 404.512 575.794 404.512Z" fill="#3F3D56"/>
<path d="M568.065 404.512H571.029C571.277 404.512 571.479 404.31 571.479 404.062V402.644C571.479 402.395 571.277 402.193 571.029 402.193H568.065C567.816 402.193 567.614 402.395 567.614 402.644V404.062C567.614 404.31 567.816 404.512 568.065 404.512Z" fill="#3F3D56"/>
<path d="M560.335 404.512H563.299C563.548 404.512 563.75 404.31 563.75 404.062V402.644C563.75 402.395 563.548 402.193 563.299 402.193H560.335C560.087 402.193 559.885 402.395 559.885 402.644V404.062C559.885 404.31 560.087 404.512 560.335 404.512Z" fill="#3F3D56"/>
<path d="M552.606 404.512H555.57C555.819 404.512 556.02 404.31 556.02 404.062V402.644C556.02 402.395 555.819 402.193 555.57 402.193H552.606C552.357 402.193 552.156 402.395 552.156 402.644V404.062C552.156 404.31 552.357 404.512 552.606 404.512Z" fill="#3F3D56"/>
<path d="M544.877 404.512H547.84C548.089 404.512 548.291 404.31 548.291 404.062V402.644C548.291 402.395 548.089 402.193 547.84 402.193H544.877C544.628 402.193 544.426 402.395 544.426 402.644V404.062C544.426 404.31 544.628 404.512 544.877 404.512Z" fill="#3F3D56"/>
<path d="M537.147 404.512H540.111C540.36 404.512 540.561 404.31 540.561 404.062V402.644C540.561 402.395 540.36 402.193 540.111 402.193H537.147C536.898 402.193 536.697 402.395 536.697 402.644V404.062C536.697 404.31 536.898 404.512 537.147 404.512Z" fill="#3F3D56"/>
<path d="M529.418 404.512H532.381C532.63 404.512 532.832 404.31 532.832 404.062V402.644C532.832 402.395 532.63 402.193 532.381 402.193H529.418C529.169 402.193 528.967 402.395 528.967 402.644V404.062C528.967 404.31 529.169 404.512 529.418 404.512Z" fill="#3F3D56"/>
<path d="M521.688 404.512H524.652C524.901 404.512 525.102 404.31 525.102 404.062V402.644C525.102 402.395 524.901 402.193 524.652 402.193H521.688C521.439 402.193 521.238 402.395 521.238 402.644V404.062C521.238 404.31 521.439 404.512 521.688 404.512Z" fill="#3F3D56"/>
<path d="M513.959 404.512H516.922C517.171 404.512 517.373 404.31 517.373 404.062V402.644C517.373 402.395 517.171 402.193 516.922 402.193H513.959C513.71 402.193 513.508 402.395 513.508 402.644V404.062C513.508 404.31 513.71 404.512 513.959 404.512Z" fill="#3F3D56"/>
<path d="M506.229 404.512H509.193C509.442 404.512 509.644 404.31 509.644 404.062V402.644C509.644 402.395 509.442 402.193 509.193 402.193H506.229C505.98 402.193 505.779 402.395 505.779 402.644V404.062C505.779 404.31 505.98 404.512 506.229 404.512Z" fill="#3F3D56"/>
<path d="M498.5 404.512H501.464C501.712 404.512 501.914 404.31 501.914 404.062V402.644C501.914 402.395 501.712 402.193 501.464 402.193H498.5C498.251 402.193 498.049 402.395 498.049 402.644V404.062C498.049 404.31 498.251 404.512 498.5 404.512Z" fill="#3F3D56"/>
<path d="M490.77 404.512H493.734C493.983 404.512 494.185 404.31 494.185 404.062V402.644C494.185 402.395 493.983 402.193 493.734 402.193H490.77C490.522 402.193 490.32 402.395 490.32 402.644V404.062C490.32 404.31 490.522 404.512 490.77 404.512Z" fill="#3F3D56"/>
<path d="M483.041 404.512H486.005C486.253 404.512 486.455 404.31 486.455 404.062V402.644C486.455 402.395 486.253 402.193 486.005 402.193H483.041C482.792 402.193 482.59 402.395 482.59 402.644V404.062C482.59 404.31 482.792 404.512 483.041 404.512Z" fill="#3F3D56"/>
<path d="M475.311 404.512H478.275C478.524 404.512 478.726 404.31 478.726 404.062V402.644C478.726 402.395 478.524 402.193 478.275 402.193H475.311C475.063 402.193 474.861 402.395 474.861 402.644V404.062C474.861 404.31 475.063 404.512 475.311 404.512Z" fill="#3F3D56"/>
<path d="M467.582 404.512H470.546C470.795 404.512 470.996 404.31 470.996 404.062V402.644C470.996 402.395 470.795 402.193 470.546 402.193H467.582C467.333 402.193 467.132 402.395 467.132 402.644V404.062C467.132 404.31 467.333 404.512 467.582 404.512Z" fill="#3F3D56"/>
<path d="M459.853 404.512H462.816C463.065 404.512 463.267 404.31 463.267 404.062V402.644C463.267 402.395 463.065 402.193 462.816 402.193H459.853C459.604 402.193 459.402 402.395 459.402 402.644V404.062C459.402 404.31 459.604 404.512 459.853 404.512Z" fill="#3F3D56"/>
<path d="M511.64 409.15H541.657C541.906 409.15 542.107 408.948 542.107 408.699V407.281C542.107 407.032 541.906 406.831 541.657 406.831H511.64C511.391 406.831 511.189 407.032 511.189 407.281V408.699C511.189 408.948 511.391 409.15 511.64 409.15Z" fill="#3F3D56"/>
<path d="M479.838 330.993H477.214C476.418 330.993 475.774 331.638 475.774 332.433C475.774 333.229 476.418 333.873 477.214 333.873H479.838C480.633 333.873 481.278 333.229 481.278 332.433C481.278 331.638 480.633 330.993 479.838 330.993Z" fill="white"/>
<path d="M509.847 330.993H507.223C506.428 330.993 505.783 331.638 505.783 332.433C505.783 333.229 506.428 333.873 507.223 333.873H509.847C510.642 333.873 511.287 333.229 511.287 332.433C511.287 331.638 510.642 330.993 509.847 330.993Z" fill="white"/>
<path d="M518.349 330.993H515.726C514.93 330.993 514.285 331.638 514.285 332.433C514.285 333.229 514.93 333.873 515.726 333.873H518.349C519.145 333.873 519.79 333.229 519.79 332.433C519.79 331.638 519.145 330.993 518.349 330.993Z" fill="white"/>
<path d="M501.684 330.753H485.377C484.581 330.753 483.936 331.397 483.936 332.193C483.936 332.988 484.581 333.633 485.377 333.633H501.684C502.48 333.633 503.125 332.988 503.125 332.193C503.125 331.397 502.48 330.753 501.684 330.753Z" fill="white"/>
<path d="M541.696 330.753H525.389C524.593 330.753 523.948 331.397 523.948 332.193C523.948 332.988 524.593 333.633 525.389 333.633H541.696C542.492 333.633 543.137 332.988 543.137 332.193C543.137 331.397 542.492 330.753 541.696 330.753Z" fill="white"/>
<path d="M487.84 337.494H485.216C484.421 337.494 483.776 338.139 483.776 338.935C483.776 339.73 484.421 340.375 485.216 340.375H487.84C488.636 340.375 489.281 339.73 489.281 338.935C489.281 338.139 488.636 337.494 487.84 337.494Z" fill="white"/>
<path d="M517.849 337.494H515.225C514.43 337.494 513.785 338.139 513.785 338.935C513.785 339.73 514.43 340.375 515.225 340.375H517.849C518.645 340.375 519.29 339.73 519.29 338.935C519.29 338.139 518.645 337.494 517.849 337.494Z" fill="white"/>
<path d="M526.352 337.494H523.728C522.932 337.494 522.288 338.139 522.288 338.935C522.288 339.73 522.932 340.375 523.728 340.375H526.352C527.147 340.375 527.792 339.73 527.792 338.935C527.792 338.139 527.147 337.494 526.352 337.494Z" fill="white"/>
<path d="M509.687 337.254H493.379C492.583 337.254 491.938 337.899 491.938 338.695C491.938 339.49 492.583 340.135 493.379 340.135H509.687C510.482 340.135 511.127 339.49 511.127 338.695C511.127 337.899 510.482 337.254 509.687 337.254Z" fill="white"/>
<path d="M549.699 337.254H533.391C532.595 337.254 531.951 337.899 531.951 338.695C531.951 339.49 532.595 340.135 533.391 340.135H549.699C550.494 340.135 551.139 339.49 551.139 338.695C551.139 337.899 550.494 337.254 549.699 337.254Z" fill="white"/>
<path d="M495.843 343.996H493.219C492.423 343.996 491.778 344.641 491.778 345.436C491.778 346.232 492.423 346.877 493.219 346.877H495.843C496.638 346.877 497.283 346.232 497.283 345.436C497.283 344.641 496.638 343.996 495.843 343.996Z" fill="white"/>
<path d="M525.852 343.996H523.228C522.432 343.996 521.787 344.641 521.787 345.436C521.787 346.232 522.432 346.877 523.228 346.877H525.852C526.647 346.877 527.292 346.232 527.292 345.436C527.292 344.641 526.647 343.996 525.852 343.996Z" fill="white"/>
<path d="M534.354 343.996H531.73C530.935 343.996 530.29 344.641 530.29 345.436C530.29 346.232 530.935 346.877 531.73 346.877H534.354C535.15 346.877 535.795 346.232 535.795 345.436C535.795 344.641 535.15 343.996 534.354 343.996Z" fill="white"/>
<path d="M517.689 343.756H501.381C500.586 343.756 499.941 344.401 499.941 345.196C499.941 345.992 500.586 346.637 501.381 346.637H517.689C518.485 346.637 519.129 345.992 519.129 345.196C519.129 344.401 518.485 343.756 517.689 343.756Z" fill="white"/>
<path d="M557.701 343.756H541.393C540.598 343.756 539.953 344.401 539.953 345.196C539.953 345.992 540.598 346.637 541.393 346.637H557.701C558.497 346.637 559.142 345.992 559.142 345.196C559.142 344.401 558.497 343.756 557.701 343.756Z" fill="white"/>
<path d="M503.845 350.498H501.221C500.426 350.498 499.781 351.143 499.781 351.938C499.781 352.734 500.426 353.378 501.221 353.378H503.845C504.641 353.378 505.285 352.734 505.285 351.938C505.285 351.143 504.641 350.498 503.845 350.498Z" fill="white"/>
<path d="M533.854 350.498H531.23C530.435 350.498 529.79 351.143 529.79 351.938C529.79 352.734 530.435 353.378 531.23 353.378H533.854C534.65 353.378 535.294 352.734 535.294 351.938C535.294 351.143 534.65 350.498 533.854 350.498Z" fill="white"/>
<path d="M542.357 350.498H539.733C538.937 350.498 538.292 351.143 538.292 351.938C538.292 352.734 538.937 353.378 539.733 353.378H542.357C543.152 353.378 543.797 352.734 543.797 351.938C543.797 351.143 543.152 350.498 542.357 350.498Z" fill="white"/>
<path d="M525.692 350.258H509.384C508.588 350.258 507.943 350.902 507.943 351.698C507.943 352.493 508.588 353.138 509.384 353.138H525.692C526.487 353.138 527.132 352.493 527.132 351.698C527.132 350.902 526.487 350.258 525.692 350.258Z" fill="white"/>
<path d="M509.847 376.351H507.223C506.428 376.351 505.783 376.996 505.783 377.792C505.783 378.587 506.428 379.232 507.223 379.232H509.847C510.642 379.232 511.287 378.587 511.287 377.792C511.287 376.996 510.642 376.351 509.847 376.351Z" fill="white"/>
<path d="M518.349 376.351H515.726C514.93 376.351 514.285 376.996 514.285 377.792C514.285 378.587 514.93 379.232 515.726 379.232H518.349C519.145 379.232 519.79 378.587 519.79 377.792C519.79 376.996 519.145 376.351 518.349 376.351Z" fill="white"/>
<path d="M541.696 376.591H525.389C524.593 376.591 523.948 377.236 523.948 378.032C523.948 378.827 524.593 379.472 525.389 379.472H541.696C542.492 379.472 543.137 378.827 543.137 378.032C543.137 377.236 542.492 376.591 541.696 376.591Z" fill="white"/>
<path d="M479.838 376.351H477.214C476.418 376.351 475.774 376.996 475.774 377.792C475.774 378.587 476.418 379.232 477.214 379.232H479.838C480.633 379.232 481.278 378.587 481.278 377.792C481.278 376.996 480.633 376.351 479.838 376.351Z" fill="white"/>
<path d="M501.684 376.591H485.377C484.581 376.591 483.936 377.236 483.936 378.032C483.936 378.827 484.581 379.472 485.377 379.472H501.684C502.48 379.472 503.125 378.827 503.125 378.032C503.125 377.236 502.48 376.591 501.684 376.591Z" fill="white"/>
<path d="M487.84 369.85H485.216C484.421 369.85 483.776 370.494 483.776 371.29C483.776 372.085 484.421 372.73 485.216 372.73H487.84C488.636 372.73 489.281 372.085 489.281 371.29C489.281 370.494 488.636 369.85 487.84 369.85Z" fill="white"/>
<path d="M517.849 369.85H515.225C514.43 369.85 513.785 370.494 513.785 371.29C513.785 372.085 514.43 372.73 515.225 372.73H517.849C518.645 372.73 519.29 372.085 519.29 371.29C519.29 370.494 518.645 369.85 517.849 369.85Z" fill="white"/>
<path d="M526.352 369.85H523.728C522.932 369.85 522.288 370.494 522.288 371.29C522.288 372.085 522.932 372.73 523.728 372.73H526.352C527.147 372.73 527.792 372.085 527.792 371.29C527.792 370.494 527.147 369.85 526.352 369.85Z" fill="white"/>
<path d="M509.687 370.09H493.379C492.583 370.09 491.938 370.735 491.938 371.53C491.938 372.325 492.583 372.97 493.379 372.97H509.687C510.482 372.97 511.127 372.325 511.127 371.53C511.127 370.735 510.482 370.09 509.687 370.09Z" fill="white"/>
<path d="M495.843 363.348H493.219C492.423 363.348 491.778 363.993 491.778 364.788C491.778 365.584 492.423 366.229 493.219 366.229H495.843C496.638 366.229 497.283 365.584 497.283 364.788C497.283 363.993 496.638 363.348 495.843 363.348Z" fill="white"/>
<path d="M525.852 363.348H523.228C522.432 363.348 521.787 363.993 521.787 364.788C521.787 365.584 522.432 366.229 523.228 366.229H525.852C526.647 366.229 527.292 365.584 527.292 364.788C527.292 363.993 526.647 363.348 525.852 363.348Z" fill="white"/>
<path d="M534.354 363.348H531.73C530.935 363.348 530.29 363.993 530.29 364.788C530.29 365.584 530.935 366.229 531.73 366.229H534.354C535.15 366.229 535.795 365.584 535.795 364.788C535.795 363.993 535.15 363.348 534.354 363.348Z" fill="white"/>
<path d="M517.689 363.588H501.381C500.586 363.588 499.941 364.233 499.941 365.028C499.941 365.824 500.586 366.469 501.381 366.469H517.689C518.485 366.469 519.129 365.824 519.129 365.028C519.129 364.233 518.485 363.588 517.689 363.588Z" fill="white"/>
<path d="M503.845 356.846H501.221C500.426 356.846 499.781 357.491 499.781 358.287C499.781 359.082 500.426 359.727 501.221 359.727H503.845C504.641 359.727 505.285 359.082 505.285 358.287C505.285 357.491 504.641 356.846 503.845 356.846Z" fill="white"/>
<path d="M533.854 356.846H531.23C530.435 356.846 529.79 357.491 529.79 358.287C529.79 359.082 530.435 359.727 531.23 359.727H533.854C534.65 359.727 535.294 359.082 535.294 358.287C535.294 357.491 534.65 356.846 533.854 356.846Z" fill="white"/>
<path d="M542.357 356.846H539.733C538.937 356.846 538.292 357.491 538.292 358.287C538.292 359.082 538.937 359.727 539.733 359.727H542.357C543.152 359.727 543.797 359.082 543.797 358.287C543.797 357.491 543.152 356.846 542.357 356.846Z" fill="white"/>
<path d="M525.692 357.086H509.384C508.588 357.086 507.943 357.731 507.943 358.527C507.943 359.322 508.588 359.967 509.384 359.967H525.692C526.487 359.967 527.132 359.322 527.132 358.527C527.132 357.731 526.487 357.086 525.692 357.086Z" fill="white"/>
<path d="M465.888 452.548L453.57 433.079L492.233 402.259L508.192 384.58C510.265 382.283 512.905 380.571 515.847 379.614C518.79 378.657 521.932 378.488 524.96 379.126C527.988 379.764 530.795 381.185 533.102 383.248C535.408 385.31 537.133 387.942 538.104 390.88C539.542 395.234 539.233 399.976 537.241 404.106C535.249 408.236 531.731 411.43 527.428 413.015L502.193 422.312L465.888 452.548Z" fill="#FFB6B6"/>
<path d="M176.873 311.38V406.009H243.169V311.38C243.17 310.7 242.953 310.037 242.549 309.489C242.146 308.941 241.577 308.537 240.927 308.336C240.62 308.234 240.299 308.185 239.976 308.188H180.074C179.654 308.187 179.239 308.269 178.85 308.429C178.462 308.589 178.109 308.824 177.812 309.121C177.514 309.417 177.278 309.769 177.117 310.157C176.956 310.545 176.873 310.961 176.873 311.38ZM202.745 343.895C202.762 342.029 203.516 340.246 204.841 338.933C206.166 337.62 207.957 336.884 209.822 336.884C211.688 336.884 213.478 337.62 214.804 338.933C216.129 340.246 216.882 342.029 216.899 343.895V354.875C216.89 356.745 216.14 358.536 214.814 359.855C213.488 361.175 211.693 361.915 209.822 361.915C207.952 361.915 206.157 361.175 204.831 359.855C203.505 358.536 202.755 356.745 202.745 354.875V343.895Z" fill="#2F2E41"/>
<path d="M176.67 402.982V412.107C176.671 412.58 176.859 413.033 177.192 413.368C177.526 413.703 177.978 413.893 178.45 413.897H241.591C242.064 413.895 242.517 413.705 242.851 413.37C243.185 413.034 243.372 412.581 243.372 412.107V402.982H176.67Z" fill="#3F3D56"/>
<path d="M72.5797 168.811V341.588C72.5815 343.79 73.4569 345.901 75.0139 347.458C76.5709 349.015 78.6821 349.891 80.884 349.892H336.934C339.136 349.891 341.247 349.015 342.804 347.458C344.361 345.901 345.236 343.79 345.238 341.588V168.811C345.233 166.611 344.356 164.503 342.799 162.948C341.243 161.393 339.134 160.519 336.934 160.516H80.884C78.684 160.519 76.5748 161.393 75.0183 162.948C73.4618 164.503 72.585 166.611 72.5797 168.811Z" fill="#3F3D56"/>
<path d="M78.5865 170.961V339.457C78.5885 340.633 79.0567 341.761 79.8886 342.593C80.7205 343.425 81.8482 343.893 83.0247 343.895H334.802C335.979 343.893 337.106 343.425 337.938 342.593C338.77 341.761 339.238 340.633 339.24 339.457V170.961C339.24 169.783 338.773 168.653 337.941 167.819C337.109 166.986 335.98 166.516 334.802 166.513H83.0247C81.8468 166.516 80.718 166.986 79.886 167.819C79.0539 168.653 78.5866 169.783 78.5865 170.961Z" fill="white"/>
<path d="M125.312 413.279C125.568 413.6 125.894 413.86 126.265 414.037C126.636 414.214 127.042 414.305 127.453 414.303H277.244C277.654 414.303 278.058 414.211 278.428 414.035C278.798 413.858 279.123 413.602 279.381 413.283C279.639 412.965 279.823 412.594 279.92 412.195C280.016 411.797 280.022 411.383 279.938 410.982L277.613 399.937C277.517 399.487 277.309 399.068 277.01 398.718C276.71 398.369 276.327 398.099 275.897 397.935C275.585 397.813 275.254 397.75 274.919 397.751H129.769C129.434 397.75 129.102 397.813 128.791 397.935C128.36 398.099 127.978 398.369 127.678 398.718C127.378 399.068 127.171 399.487 127.074 399.937L124.749 410.982C124.667 411.382 124.674 411.796 124.771 412.194C124.869 412.591 125.054 412.962 125.312 413.279Z" fill="#2F2E41"/>
<path d="M326.631 189.725H91.044C90.7991 189.719 90.5661 189.618 90.3948 189.443C90.2236 189.268 90.1277 189.033 90.1277 188.788C90.1277 188.543 90.2236 188.308 90.3948 188.133C90.5661 187.957 90.7991 187.856 91.044 187.851H326.631C326.876 187.856 327.109 187.957 327.28 188.133C327.452 188.308 327.548 188.543 327.548 188.788C327.548 189.033 327.452 189.268 327.28 189.443C327.109 189.618 326.876 189.719 326.631 189.725Z" fill="#3F3D56"/>
<path d="M107.081 183.068C110.113 183.068 112.571 180.555 112.571 177.455C112.571 174.355 110.113 171.842 107.081 171.842C104.048 171.842 101.59 174.355 101.59 177.455C101.59 180.555 104.048 183.068 107.081 183.068Z" fill="#3F3D56"/>
<path d="M126.048 183.068C129.08 183.068 131.538 180.555 131.538 177.455C131.538 174.355 129.08 171.842 126.048 171.842C123.015 171.842 120.557 174.355 120.557 177.455C120.557 180.555 123.015 183.068 126.048 183.068Z" fill="#3F3D56"/>
<path d="M145.015 183.068C148.047 183.068 150.505 180.555 150.505 177.455C150.505 174.355 148.047 171.842 145.015 171.842C141.983 171.842 139.524 174.355 139.524 177.455C139.524 180.555 141.983 183.068 145.015 183.068Z" fill="#3F3D56"/>
<path d="M315.21 173.23H301.739C301.472 173.237 301.219 173.347 301.033 173.537C300.847 173.728 300.742 173.984 300.742 174.25C300.742 174.516 300.847 174.772 301.033 174.963C301.219 175.153 301.472 175.263 301.739 175.27H315.21C315.478 175.266 315.734 175.157 315.922 174.966C316.11 174.775 316.215 174.518 316.215 174.25C316.215 173.982 316.11 173.725 315.922 173.534C315.734 173.343 315.478 173.234 315.21 173.23Z" fill="#3F3D56"/>
<path d="M315.21 177.059H301.739C301.472 177.065 301.218 177.175 301.032 177.366C300.846 177.557 300.741 177.812 300.741 178.079C300.741 178.346 300.846 178.602 301.032 178.792C301.218 178.983 301.472 179.093 301.739 179.099H315.21C315.478 179.095 315.734 178.987 315.923 178.796C316.112 178.605 316.217 178.347 316.217 178.079C316.217 177.811 316.112 177.553 315.923 177.362C315.734 177.172 315.478 177.063 315.21 177.059Z" fill="#3F3D56"/>
<path d="M315.21 180.888H301.739C301.472 180.895 301.219 181.005 301.033 181.195C300.847 181.386 300.742 181.642 300.742 181.908C300.742 182.174 300.847 182.43 301.033 182.621C301.219 182.811 301.472 182.921 301.739 182.928H315.21C315.478 182.924 315.734 182.815 315.922 182.624C316.11 182.433 316.215 182.176 316.215 181.908C316.215 181.64 316.11 181.383 315.922 181.192C315.734 181.001 315.478 180.892 315.21 180.888Z" fill="#3F3D56"/>
<path d="M639.982 406.987C640.388 408.171 641.16 409.195 642.185 409.913C643.21 410.631 644.436 411.005 645.687 410.983L670.131 410.354C671.392 410.329 672.61 409.898 673.605 409.123C674.6 408.349 675.317 407.273 675.65 406.057L679.109 369.07C680.336 369.626 681.672 369.901 683.019 369.874C684.189 369.844 685.342 369.585 686.412 369.11C687.482 368.635 688.448 367.954 689.255 367.105C690.062 366.257 690.694 365.258 691.114 364.166C691.535 363.073 691.737 361.909 691.707 360.739C691.678 359.568 691.418 358.415 690.943 357.345C690.468 356.276 689.787 355.31 688.939 354.503C688.09 353.696 687.092 353.064 685.999 352.644C684.907 352.223 683.742 352.022 682.572 352.051C682.033 352.049 681.496 352.105 680.97 352.218C680.397 351.598 679.701 351.105 678.927 350.771C678.152 350.437 677.316 350.269 676.472 350.277L638.872 351.248C638.56 351.26 638.25 351.298 637.944 351.363C637.12 351.517 636.338 351.846 635.651 352.327C634.964 352.808 634.388 353.431 633.962 354.154C633.536 354.876 633.27 355.681 633.181 356.515C633.092 357.35 633.183 358.193 633.448 358.989L639.982 406.987ZM679.818 366.559L682.28 357.745C682.56 356.727 682.566 355.653 682.298 354.631C682.418 354.631 682.523 354.574 682.643 354.574C684.33 354.539 685.963 355.175 687.183 356.342C688.402 357.509 689.109 359.112 689.149 360.8C689.188 362.487 688.557 364.121 687.393 365.344C686.23 366.567 684.629 367.279 682.941 367.323C681.85 367.357 680.77 367.093 679.818 366.559Z" fill="#2F2E41"/>
<path d="M637.944 351.363C638.745 355.943 647.752 359.163 658.581 358.604C668.54 358.145 676.682 354.648 678.174 350.504C677.622 350.341 677.048 350.264 676.472 350.277L638.872 351.248C638.56 351.26 638.25 351.298 637.944 351.363Z" fill="#3F3D56"/>
<path d="M660.566 386.662C660.616 386.65 660.663 386.629 660.705 386.601L666.014 383.127C666.078 383.085 666.131 383.028 666.167 382.96C666.204 382.893 666.223 382.818 666.223 382.741C666.223 382.664 666.204 382.589 666.167 382.522C666.131 382.454 666.078 382.397 666.014 382.355L660.497 378.741C660.446 378.708 660.389 378.685 660.33 378.673C660.27 378.662 660.209 378.662 660.149 378.674C660.09 378.686 660.033 378.71 659.983 378.745C659.933 378.779 659.89 378.822 659.856 378.873C659.823 378.924 659.8 378.981 659.789 379.04C659.778 379.1 659.778 379.161 659.791 379.221C659.803 379.28 659.827 379.337 659.862 379.387C659.896 379.437 659.94 379.48 659.991 379.513L664.919 382.74L660.2 385.829C660.109 385.889 660.042 385.979 660.011 386.084C659.98 386.188 659.987 386.301 660.03 386.401C660.074 386.501 660.152 386.582 660.25 386.63C660.348 386.678 660.46 386.689 660.566 386.662Z" fill="#6C63FF"/>
<path d="M652.182 387.049C652.271 387.027 652.351 386.978 652.412 386.909C652.474 386.841 652.513 386.756 652.525 386.665C652.538 386.574 652.523 386.481 652.482 386.398C652.442 386.316 652.378 386.247 652.298 386.202L647.405 383.396L652.134 379.884C652.183 379.848 652.224 379.802 652.255 379.75C652.286 379.698 652.307 379.641 652.315 379.581C652.324 379.521 652.321 379.46 652.306 379.401C652.292 379.343 652.265 379.287 652.229 379.239C652.193 379.19 652.148 379.149 652.096 379.118C652.044 379.087 651.986 379.066 651.926 379.058C651.867 379.049 651.806 379.052 651.747 379.067C651.688 379.081 651.633 379.108 651.584 379.144L646.289 383.077C646.228 383.122 646.179 383.182 646.146 383.252C646.114 383.321 646.099 383.398 646.104 383.474C646.108 383.55 646.132 383.625 646.172 383.69C646.212 383.755 646.268 383.809 646.335 383.847L651.839 387.002C651.943 387.062 652.066 387.079 652.182 387.049Z" fill="#6C63FF"/>
<path d="M660.038 389.707C660.083 389.696 660.125 389.678 660.164 389.654C660.216 389.622 660.261 389.581 660.297 389.532C660.333 389.483 660.359 389.428 660.373 389.369C660.388 389.31 660.39 389.249 660.381 389.189C660.372 389.129 660.351 389.072 660.319 389.02L652.794 376.648C652.73 376.544 652.628 376.469 652.509 376.441C652.39 376.412 652.264 376.432 652.16 376.495C652.056 376.559 651.981 376.661 651.952 376.78C651.923 376.899 651.942 377.024 652.006 377.129L659.531 389.5C659.582 389.584 659.659 389.65 659.75 389.687C659.842 389.724 659.942 389.731 660.038 389.707Z" fill="#6C63FF"/>
<path d="M236.986 240.655H196.211C194.548 240.655 193.199 242.003 193.199 243.667V247.65C193.199 249.314 194.548 250.662 196.211 250.662H236.986C238.65 250.662 239.998 249.314 239.998 247.65V243.667C239.998 242.003 238.65 240.655 236.986 240.655Z" fill="#6C63FF"/>
<path d="M260.754 260.669H172.444C170.78 260.669 169.432 262.017 169.432 263.681V267.664C169.432 269.327 170.78 270.676 172.444 270.676H260.754C262.417 270.676 263.766 269.327 263.766 267.664V263.681C263.766 262.017 262.417 260.669 260.754 260.669Z" fill="#E6E6E6"/>
<path d="M260.754 280.683H172.444C170.78 280.683 169.432 282.031 169.432 283.694V287.678C169.432 289.341 170.78 290.69 172.444 290.69H260.754C262.417 290.69 263.766 289.341 263.766 287.678V283.694C263.766 282.031 262.417 280.683 260.754 280.683Z" fill="#E6E6E6"/>
<path d="M268.24 347.701L268.44 348.333L268.45 348.354L274.471 366.657L281.397 387.75L294.428 427.389L294.554 433.546V433.567L295.523 483.1L292.839 489.815L295.86 500.825C295.86 500.825 294.47 484.183 287.018 493.74C282.797 499.171 277.86 504.728 273.808 509.938C279.713 512.328 285.713 514.489 291.807 516.422C293.123 516.843 294.449 517.243 295.775 517.643C296.06 517.727 296.344 517.811 296.628 517.896C316.83 523.87 337.716 527.227 358.773 527.884C359.867 527.916 360.941 527.937 361.983 527.958C362.352 527.968 362.709 527.979 363.067 527.979C364.246 527.99 365.415 528 366.593 528C368.972 528 371.341 527.965 373.698 527.895C391.15 527.403 408.499 525.057 425.454 520.895C425.338 513.896 425.023 505.718 424.57 496.982C424.359 492.698 419.633 488.056 419.349 483.572C419.149 480.204 423.391 477.036 423.17 473.615C421.738 452.554 419.949 460.639 418.623 445.724C418.486 444.261 418.36 442.861 418.244 441.525C417.391 431.946 416.802 425.957 416.802 425.957L422.465 390.266L431.359 334.229L430.675 333.102L429.907 332.723L382.993 309.504L380.445 302.979C379.703 301.099 378.416 299.484 376.748 298.341C375.08 297.199 373.109 296.582 371.088 296.569L340.184 296.442C338.58 296.435 336.998 296.81 335.568 297.537C334.138 298.264 332.903 299.321 331.963 300.621L323.595 312.209L268.24 347.701Z" fill="#3F3D56"/>
<path d="M301.554 418.569L294.554 433.546L289.776 443.777L281.555 486.816L277.439 491.184L273.913 475.72L237.007 483.914C235.797 477.189 236.683 484.142 235.936 476.764C236.146 476.553 236.367 476.343 236.588 476.132C237.178 475.585 237.673 475.069 237.662 474.574C237.241 449.124 238.504 405.812 249.051 379.572C250.703 375.288 252.881 371.225 255.535 367.478C255.745 367.194 255.945 366.91 256.145 366.626C261.008 359.816 264.082 353.111 268.44 348.343V348.333C268.467 348.311 268.492 348.286 268.513 348.259C268.529 348.251 268.543 348.24 268.555 348.227L298.491 332.355L299.775 368.436L300.691 394.371L301.554 418.569Z" fill="#3F3D56"/>
<path d="M409.496 422.823L418.24 441.53L421.291 448.044L429.51 491.079L433.612 495.436L437.146 479.977L438.807 479.636L468.756 473.434L477.486 501.156C479.453 497.878 480.228 494.021 479.68 490.238C479.132 486.454 477.294 482.976 474.477 480.391C473.88 479.852 473.384 479.327 473.398 478.83C473.895 448.896 472.064 394.237 455.528 371.741C450.276 364.601 447.125 357.49 442.54 352.523C442.526 352.509 442.526 352.494 442.512 352.494L431.355 334.227L430.674 333.106L429.907 332.723L409.496 422.823Z" fill="#3F3D56"/>
<path d="M356.529 287.648C379.235 287.648 397.643 269.241 397.643 246.536C397.643 223.83 379.235 205.423 356.529 205.423C333.822 205.423 315.415 223.83 315.415 246.536C315.415 269.241 333.822 287.648 356.529 287.648Z" fill="#FFB6B6"/>
<path d="M412.099 217.819C411.78 217.478 411.396 217.206 410.97 217.017C410.543 216.828 410.083 216.728 409.617 216.721L410.235 215.005C410.437 214.464 410.491 213.88 410.393 213.311C410.295 212.743 410.047 212.211 409.675 211.769C409.303 211.328 408.821 210.994 408.277 210.8C407.734 210.607 407.148 210.561 406.581 210.668L404.33 211.102L404.542 209.598C404.623 209.038 404.558 208.466 404.351 207.939C404.145 207.412 403.804 206.948 403.364 206.592C402.924 206.237 402.398 206.002 401.84 205.911C401.281 205.82 400.708 205.876 400.178 206.073C399.695 206.263 399.176 206.343 398.659 206.306C398.142 206.269 397.639 206.117 397.188 205.861C396.735 205.613 396.342 205.269 396.036 204.853C395.73 204.437 395.519 203.959 395.417 203.453L394.632 199.67L394.549 199.467C390.729 193.101 383.385 188.469 374.397 186.771C366.398 185.249 358.195 186.024 350.287 186.753C347.15 187.048 343.607 187.38 340.654 189.189C338.145 190.739 336.022 193.839 336.456 196.967C328.659 194.577 320.299 199.347 316.157 205.363C311.248 212.523 310.445 221.491 310.316 228.503C309.965 245.093 313.388 258.665 320.466 268.851C320.982 269.589 321.111 271.13 322.136 271.647L321.923 271.305C323.068 271.878 324.23 272.8 323.796 273.787C322.551 276.629 330.827 282.913 336.659 284.989C347.298 288.781 361.443 288.458 371.389 287.092L371.74 284.739C375.329 284.25 377.858 283.319 378.568 281.861C379.823 280.79 380.893 279.831 381.825 278.945L381.834 278.936C381.853 278.917 381.89 278.89 381.908 278.871C386.402 274.562 387.444 272.108 387.915 268.371C388.367 264.709 387.564 260.99 386.743 257.641C404.035 260.317 379.934 239.225 396.044 235.146C396.229 235.09 396.417 235.043 396.607 235.008C397.077 234.897 397.548 234.787 398 234.657C400.18 234.066 402.266 233.175 404.201 232.009C408.703 229.269 410.189 225.634 412.514 221.537C412.85 220.954 412.99 220.279 412.916 219.61C412.841 218.941 412.555 218.314 412.099 217.819Z" fill="#2F2E41"/>
<path d="M501.943 425.75C501.933 427.364 501.915 429.625 501.841 432.421C501.832 432.808 501.823 433.205 501.813 433.611C501.693 438.75 501.573 443.059 501.38 447.847C501.37 448.18 501.361 448.503 501.343 448.835C501.084 455.515 500.678 463.293 499.977 475.61C498.676 498.363 496.406 478.738 494.127 486.719C494.016 487.116 493.897 487.587 493.786 488.14C493.441 490.149 492.858 492.109 492.051 493.981C490.842 494.7 489.597 495.392 488.37 496.084C484.873 498.031 481.32 499.904 477.74 501.685C475.729 502.681 473.708 503.659 471.678 504.6C471.355 504.748 471.041 504.896 470.728 505.034C460.333 509.842 449.619 513.93 438.664 517.269C436.523 517.914 434.392 518.542 432.232 519.123C429.981 519.75 427.73 520.341 425.451 520.895C408.496 525.057 391.147 527.404 373.696 527.898C371.343 527.971 368.972 527.999 366.591 527.999C365.41 527.999 364.248 527.99 363.067 527.981C362.707 527.981 362.347 527.971 361.987 527.962C360.945 527.934 359.865 527.916 358.776 527.888C337.719 527.232 316.834 523.873 296.632 517.896L295.774 517.647C294.445 517.241 293.126 516.844 291.807 516.42C285.717 514.491 279.716 512.332 273.805 509.943C269.293 508.125 264.833 506.175 260.425 504.093C260.385 504.082 260.348 504.063 260.315 504.038C259.392 503.613 258.46 503.17 257.537 502.718C257.417 502.654 257.288 502.589 257.159 502.524C253.717 500.845 250.313 499.086 246.945 497.247C244.112 490.742 240.126 489.496 237.653 483.776C236.933 482.076 236.413 480.299 236.103 478.48C236.103 478.461 236.094 478.443 236.094 478.415C236.352 481.848 234.996 472.326 236.085 478.378C236.075 478.268 236.066 478.148 236.057 478.009C236.029 477.677 235.992 477.271 235.937 476.764C232.772 445.864 232.975 410.526 231.6 381.407C231.508 379.524 231.413 377.722 231.314 376C231.287 375.428 231.25 374.865 231.213 374.311C231.277 374.145 231.351 373.97 231.434 373.804C231.452 373.756 231.473 373.71 231.499 373.666C231.526 373.608 231.557 373.553 231.591 373.499C231.609 373.472 231.637 373.435 231.656 373.407C231.669 373.376 231.684 373.345 231.702 373.315C231.785 373.186 231.877 373.047 231.979 372.918C232.025 372.863 232.062 372.817 232.108 372.771C232.14 372.723 232.177 372.68 232.218 372.641C232.247 372.597 232.281 372.557 232.32 372.521C232.357 372.485 232.394 372.438 232.44 372.392C232.46 372.363 232.485 372.338 232.514 372.319C232.587 372.235 232.667 372.157 232.754 372.088C233.083 371.785 233.434 371.507 233.805 371.257C233.935 371.174 234.073 371.091 234.202 370.999C235.132 370.443 236.111 369.973 237.127 369.597C237.478 369.467 237.828 369.348 238.207 369.218C238.345 369.181 238.474 369.135 238.613 369.089C238.816 369.025 239.019 368.96 239.231 368.914C240.283 368.6 241.418 368.333 242.645 368.083C242.793 368.056 242.949 368.028 243.106 367.991C243.328 367.945 243.558 367.908 243.789 367.871C244.103 367.816 244.426 367.761 244.749 367.705C247.489 367.272 250.599 366.949 254.031 366.736C254.354 366.718 254.677 366.7 255 366.681C255.378 366.663 255.757 366.644 256.144 366.626C256.467 366.607 256.799 366.598 257.131 366.589C257.454 366.57 257.786 366.561 258.128 366.552C259.06 366.524 260.019 366.497 260.998 366.478C263.784 366.423 266.718 366.441 269.8 366.506C271.23 366.543 272.688 366.58 274.183 366.644C274.284 366.644 274.377 366.653 274.469 366.653C275.77 366.699 277.08 366.755 278.427 366.829C279.368 366.875 280.319 366.921 281.269 366.976C282.164 367.032 283.069 367.087 283.982 367.152C284.692 367.189 285.403 367.244 286.123 367.29C286.732 367.336 287.341 367.382 287.95 367.419L288.78 367.475C289.232 367.511 289.684 367.539 290.146 367.585C291.161 367.668 292.176 367.751 293.209 367.834C294.233 367.927 295.276 368.019 296.319 368.111C297.361 368.203 298.413 368.305 299.465 368.406C299.576 368.416 299.677 368.425 299.779 368.434C300.738 368.536 301.698 368.628 302.667 368.729C302.888 368.748 303.119 368.766 303.34 368.794C304.264 368.887 305.206 368.995 306.138 369.094C306.424 369.125 306.709 369.155 306.995 369.187C307.726 369.266 308.446 369.335 309.181 369.421C310.15 369.532 311.137 369.634 312.097 369.763C312.844 369.846 313.591 369.929 314.339 370.021C315.511 370.159 316.701 370.307 317.891 370.464C318.343 370.519 318.795 370.575 319.248 370.639C322.643 371.064 326.076 371.534 329.563 372.023C334.85 372.771 340.221 373.583 345.628 374.459C351.044 375.336 356.491 376.261 361.969 377.236C363.353 377.485 364.737 377.734 366.13 377.993C366.757 378.113 367.385 378.233 368.012 378.353C369.083 378.546 370.153 378.749 371.223 378.952C372.294 379.155 373.364 379.358 374.434 379.571C375.708 379.82 376.99 380.069 378.264 380.318C386.651 381.979 394.992 383.75 403.13 385.605C404.468 385.909 405.806 386.223 407.135 386.527C409.792 387.146 412.425 387.773 415.033 388.41C415.753 388.576 416.463 388.751 417.174 388.926C418.945 389.369 420.717 389.812 422.461 390.264L422.765 390.347C424.048 390.661 425.303 390.984 426.558 391.316C429.52 392.091 432.432 392.875 435.296 393.669C437.196 394.195 439.076 394.727 440.933 395.265C443.711 396.068 446.433 396.88 449.081 397.701C449.736 397.904 450.391 398.107 451.037 398.301C452.975 398.9 454.885 399.509 456.739 400.118C458.216 400.598 459.655 401.087 461.076 401.576C462.497 402.065 463.89 402.554 465.256 403.043C466.132 403.357 467 403.689 467.867 404.003C469.113 404.464 470.34 404.925 471.539 405.387C471.909 405.525 472.268 405.673 472.628 405.811C472.859 405.913 473.08 405.996 473.302 406.088C473.735 406.263 474.178 406.429 474.603 406.605C475.036 406.771 475.461 406.946 475.885 407.13C476.301 407.297 476.725 407.472 477.131 407.647C477.546 407.813 477.952 407.989 478.358 408.173C478.7 408.311 479.032 408.459 479.355 408.607C480.01 408.893 480.665 409.179 481.302 409.474C481.615 409.622 481.929 409.76 482.243 409.908L482.962 410.24C483.064 410.295 483.165 410.341 483.267 410.387C483.498 410.498 483.738 410.618 483.968 410.729C484.503 410.978 485.029 411.246 485.546 411.495C486.238 411.845 486.912 412.196 487.558 412.537C488.213 412.888 488.849 413.239 489.458 413.58C489.56 413.635 489.652 413.691 489.754 413.746C489.892 413.82 490.03 413.903 490.169 413.977C490.639 414.244 491.091 414.521 491.544 414.789C492.429 415.333 493.269 415.868 494.053 416.403C494.229 416.523 494.395 416.643 494.57 416.754C495.151 417.169 495.705 417.575 496.222 417.99C496.222 417.999 496.222 417.999 496.231 417.999C496.406 418.129 496.572 418.267 496.738 418.396C496.877 418.525 497.024 418.636 497.163 418.765C497.643 419.18 498.086 419.577 498.492 419.983C498.628 420.108 498.757 420.241 498.879 420.38C498.933 420.424 498.982 420.474 499.027 420.527C499.211 420.712 499.377 420.896 499.534 421.081C499.559 421.106 499.58 421.134 499.599 421.164C499.82 421.422 500.023 421.681 500.217 421.939C500.309 422.068 500.411 422.197 500.494 422.327C500.605 422.483 500.715 422.65 500.808 422.806C500.891 422.936 500.964 423.074 501.038 423.203C501.234 423.536 501.401 423.885 501.536 424.246C501.64 424.491 501.723 424.744 501.786 425.002C501.855 425.247 501.908 425.497 501.943 425.75Z" fill="#2F2E41"/>
<path opacity="0.2" d="M501.942 425.75C501.933 427.364 501.915 429.625 501.841 432.421C501.832 432.808 501.813 433.205 501.804 433.611C501.712 437.532 501.573 442.376 501.38 447.848C501.37 448.18 501.361 448.503 501.343 448.835C501.084 455.515 500.678 463.293 499.977 475.61C498.676 498.363 496.406 478.738 494.127 486.719C487.797 482.826 480.859 478.747 473.44 474.559C472.102 473.802 470.752 473.042 469.39 472.28C454.552 464.003 437.981 455.33 420.68 446.74C419.997 446.399 419.305 446.058 418.623 445.725C378.992 426.137 335.736 407.084 300.692 394.37C293.929 391.916 287.47 389.701 281.398 387.755C268.61 383.667 257.556 380.807 249.048 379.571C240.19 378.279 234.073 378.74 231.6 381.407C231.508 379.524 231.412 377.722 231.314 376C231.277 375.428 231.24 374.865 231.203 374.311C231.26 374.16 231.334 374.015 231.406 373.868C231.416 373.847 231.423 373.825 231.434 373.804C231.452 373.756 231.473 373.71 231.499 373.666C231.526 373.608 231.557 373.553 231.591 373.499C231.621 373.434 231.658 373.372 231.702 373.315C231.785 373.186 231.877 373.047 231.978 372.918C232.053 372.821 232.133 372.729 232.218 372.641C232.247 372.597 232.281 372.557 232.32 372.521C232.357 372.484 232.394 372.438 232.44 372.392C232.46 372.363 232.485 372.338 232.514 372.318C232.587 372.235 232.667 372.157 232.754 372.088C233.083 371.785 233.434 371.507 233.805 371.257C233.935 371.174 234.073 371.091 234.202 370.999C235.132 370.443 236.111 369.973 237.127 369.597C237.478 369.467 237.828 369.347 238.207 369.218C238.345 369.181 238.474 369.135 238.613 369.089C238.816 369.025 239.019 368.96 239.231 368.914C240.283 368.6 241.418 368.333 242.645 368.083C243.014 368.01 243.401 367.936 243.789 367.871C244.103 367.816 244.426 367.761 244.749 367.705C247.489 367.272 250.599 366.949 254.031 366.736C254.354 366.718 254.677 366.699 255 366.681C255.378 366.663 255.756 366.644 256.144 366.626C256.467 366.607 256.799 366.598 257.131 366.589C257.454 366.57 257.786 366.561 258.128 366.552C259.06 366.524 260.019 366.496 260.997 366.478C263.784 366.432 266.718 366.45 269.8 366.515C271.23 366.543 272.688 366.589 274.183 366.653C274.275 366.653 274.377 366.663 274.469 366.663C275.77 366.699 277.089 366.764 278.427 366.829C279.368 366.875 280.319 366.921 281.269 366.976C282.164 367.032 283.068 367.087 283.982 367.152C284.692 367.188 285.403 367.244 286.122 367.29C286.731 367.336 287.341 367.382 287.949 367.419C288.678 367.474 289.407 367.53 290.146 367.585C291.16 367.668 292.175 367.751 293.209 367.834C294.233 367.927 295.276 368.019 296.318 368.111C297.361 368.203 298.413 368.305 299.465 368.406C299.576 368.416 299.677 368.425 299.779 368.434C300.738 368.536 301.698 368.628 302.667 368.729C308.037 369.274 313.564 369.91 319.248 370.639C322.643 371.073 326.082 371.537 329.563 372.032C334.85 372.78 340.221 373.592 345.628 374.459C351.044 375.336 356.491 376.261 361.969 377.236C363.353 377.485 364.737 377.734 366.13 377.993C367.828 378.306 369.526 378.626 371.223 378.952C372.294 379.155 373.364 379.358 374.434 379.571C375.708 379.82 376.99 380.069 378.264 380.318C386.651 381.979 394.992 383.75 403.13 385.605C404.468 385.909 405.806 386.223 407.135 386.527C409.792 387.146 412.425 387.773 415.033 388.41C415.753 388.585 416.463 388.76 417.174 388.936C418.955 389.378 420.717 389.821 422.461 390.264V390.273C422.562 390.292 422.664 390.32 422.765 390.347C424.039 390.67 425.303 390.993 426.558 391.325C429.52 392.1 432.432 392.881 435.296 393.669C437.196 394.204 439.079 394.73 440.933 395.265C443.711 396.077 446.433 396.889 449.081 397.701C449.736 397.904 450.391 398.107 451.037 398.301C452.975 398.91 454.875 399.515 456.739 400.118C458.216 400.598 459.655 401.087 461.076 401.576C462.497 402.065 463.89 402.554 465.256 403.043C466.142 403.357 467.009 403.68 467.867 403.993C469.122 404.455 470.34 404.916 471.539 405.387C471.908 405.525 472.268 405.673 472.628 405.811C473.302 406.069 473.957 406.337 474.603 406.605C475.036 406.771 475.461 406.946 475.885 407.13C476.301 407.297 476.725 407.472 477.131 407.647C477.546 407.813 477.952 407.989 478.358 408.173C478.7 408.311 479.032 408.459 479.355 408.607C480.01 408.893 480.665 409.179 481.302 409.474C481.615 409.622 481.929 409.76 482.243 409.908L482.962 410.24C483.064 410.295 483.165 410.341 483.267 410.387C484.051 410.757 484.808 411.126 485.546 411.495C486.238 411.845 486.912 412.196 487.558 412.537C488.323 412.943 489.052 413.34 489.754 413.746C489.892 413.82 490.03 413.903 490.169 413.977C490.639 414.244 491.091 414.521 491.544 414.788C492.429 415.333 493.269 415.868 494.053 416.403C494.828 416.938 495.548 417.464 496.222 417.99C496.222 417.999 496.222 417.999 496.231 417.999C496.554 418.258 496.868 418.516 497.163 418.765C497.643 419.18 498.086 419.577 498.492 419.983C498.628 420.108 498.757 420.241 498.879 420.38C498.933 420.424 498.982 420.474 499.027 420.527C499.22 420.74 499.414 420.952 499.599 421.164C499.82 421.422 500.023 421.681 500.217 421.939C500.309 422.068 500.411 422.197 500.494 422.327C500.605 422.483 500.715 422.65 500.808 422.806C500.891 422.936 500.964 423.074 501.038 423.203C501.234 423.536 501.401 423.885 501.536 424.246C501.637 424.492 501.721 424.745 501.786 425.002C501.856 425.247 501.908 425.497 501.942 425.75Z" fill="black"/>
</g>
<defs>
<clipPath id="clip0_8_344">
<rect width="726" height="528" fill="white"/>
</clipPath>
</defs>
</svg>
